<?xml version="1.0" encoding="UTF-8" standalone="no"?>
<!DOCTYPE svg PUBLIC "-//W3C//DTD SVG 1.1//EN" "http://www.w3.org/Graphics/SVG/1.1/DTD/svg11.dtd">
<svg width="100%" height="100%" viewBox="0 0 594 686" version="1.1" xmlns="http://www.w3.org/2000/svg" xmlns:xlink="http://www.w3.org/1999/xlink" xml:space="preserve" style="fill-rule:evenodd;clip-rule:evenodd;stroke-linejoin:round;stroke-miterlimit:1.41421;">
    <g transform="matrix(0.417611,0,0,0.417611,-190.715,-143.871)">
        <path d="M1167,363L1858.09,762L1858.09,1560L1167,1959L475.912,1560L475.912,762L1167,363Z" style="fill:rgb(111,0,0);stroke-width:20.1px;stroke:white;"/>
    </g>
    <g transform="matrix(1,0,0,1,-288,-439)">
        <g transform="matrix(0.195213,-0.108892,0.108892,0.195213,328.123,494.801)">
            <path d="M-22.8,509.9L20.9,509.9L20.9,513.4C20.9,521.4 20,528.4 18.1,534.5C16.3,540.2 13.2,545.5 8.8,550.4C-1,561.5 -13.5,567 -28.7,567C-43.5,567 -56.2,561.7 -66.7,551C-77.3,540.3 -82.5,527.4 -82.5,512.3C-82.5,496.9 -77.1,483.9 -66.4,473.2C-55.7,462.5 -42.6,457.1 -27.2,457.1C-18.9,457.1 -11.2,458.8 -4,462.2C2.9,465.6 9.6,471 16.2,478.6L4.8,489.5C-3.9,477.9 -14.5,472.2 -26.9,472.2C-38.1,472.2 -47.5,476.1 -55.1,483.8C-62.7,491.4 -66.5,500.9 -66.5,512.3C-66.5,524.1 -62.3,533.8 -53.8,541.4C-45.9,548.5 -37.3,552 -28.1,552C-20.2,552 -13.2,549.4 -6.9,544.1C-0.6,538.8 2.9,532.4 3.6,525L-22.8,525L-22.8,509.9Z" style="fill:rgb(250,206,50);fill-rule:nonzero;"/>
        </g>
        <g transform="matrix(0.195213,-0.108892,0.108892,0.195213,324.65,498.344)">
            <rect x="77.5" y="459.2" width="16" height="105.9" style="fill:rgb(250,206,50);"/>
        </g>
        <g transform="matrix(0.195213,-0.108892,0.108892,0.195213,324.65,498.344)">
            <path d="M184.7,474.2L184.7,565L168.7,565L168.7,474.2L144.4,474.2L144.4,459.2L209,459.2L209,474.2L184.7,474.2ZM334.2,464.9L334.2,483.8C325,476.1 315.4,472.2 305.5,472.2C294.6,472.2 285.5,476.1 278,483.9C270.5,491.7 266.8,501.2 266.8,512.4C266.8,523.5 270.5,532.9 278,540.5C285.5,548.1 294.7,551.9 305.6,551.9C311.2,551.9 316,551 319.9,549.2C322.1,548.3 324.4,547.1 326.7,545.5C329.1,543.9 331.5,542.1 334.1,539.9L334.1,559.2C325,564.4 315.4,567 305.3,567C290.2,567 277.3,561.7 266.6,551.2C256,540.6 250.6,527.7 250.6,512.7C250.6,499.2 255.1,487.2 264,476.6C275,463.7 289.2,457.2 306.6,457.2C316.1,457.2 325.3,459.7 334.2,464.9" style="fill:rgb(250,206,50);fill-rule:nonzero;"/>
        </g>
        <g transform="matrix(0.195213,-0.108892,0.108892,0.195213,324.65,498.344)">
            <path d="M410.5,495C410.5,506.7 414.4,516.3 422.3,523.8C430.1,531.3 439.1,535.1 449.4,535.1C460.5,535.1 469.9,531.3 477.5,523.6C485.1,515.8 489,506.4 489,495.2C489,483.9 485.2,474.5 477.7,466.8C470.2,459.1 460.9,455.3 449.9,455.3C438.9,455.3 429.6,459.1 422,466.8C414.3,474.5 410.5,483.8 410.5,495M394.4,494.8C394.4,479.9 399.9,467.1 410.8,456.4C421.7,445.7 434.7,440.4 450,440.4C465.1,440.4 478,445.8 488.8,456.6C499.6,467.4 505,480.3 505,495.5C505,510.7 499.6,523.6 488.7,534.2C477.8,544.9 464.6,550.2 449.1,550.2C435.4,550.2 423.2,545.5 412.3,536C400.4,525.5 394.4,511.8 394.4,494.8" style="fill:white;fill-rule:nonzero;"/>
        </g>
        <g transform="matrix(0.195213,-0.108892,0.108892,0.195213,324.65,498.344)">
            <rect x="552.1" y="459.2" width="16" height="105.9" style="fill:rgb(250,206,50);"/>
        </g>
        <g transform="matrix(0.195213,-0.108892,0.108892,0.195213,323.624,497.73)">
            <path d="M630,565.1L630,452L707.2,532.8L707.2,459.2L723.2,459.2L723.2,571.5L646,491L646,565.1L630,565.1Z" style="fill:rgb(250,206,50);fill-rule:nonzero;"/>
        </g>
    </g>
    <g transform="matrix(0.344593,0,0,0.344593,-104.481,-55.0081)">
        <path d="M1167,363L1858.09,762L1858.09,1560L1167,1959L475.912,1560L475.912,762L1167,363Z" style="fill:white;"/>
    </g>
    <g transform="matrix(0.329648,0,0,0.329648,-88.0619,-37.6792)">
        <path d="M1167,363L1858.09,762L1858.09,1560L1167,1959L475.912,1560L475.912,762L1167,363Z" style="fill:rgb(111,0,0);"/>
    </g>
    <g transform="matrix(0.931012,0.36499,-0.36499,0.931012,313.765,-46.0654)">
        <ellipse cx="262" cy="443" rx="12" ry="8" style="fill:rgb(33,224,255);"/>
    </g>
    <g transform="matrix(-0.931012,0.36499,0.36499,0.931012,515.235,-46.0654)">
        <ellipse cx="262" cy="443" rx="12" ry="8" style="fill:rgb(33,224,255);"/>
    </g>
    <g transform="matrix(1,0,0,1,130,20)">
        <path d="M265,447C265,447 250,452.522 250,457C250,462.519 256.721,467 265,467C273.279,467 280,462.519 280,457C280,452.522 265,447 265,447Z" style="fill:rgb(33,224,255);"/>
    </g>
    <g transform="matrix(1,0,0,1,169,20)">
        <path d="M265,447C265,447 250,452.522 250,457C250,462.519 256.721,467 265,467C273.279,467 280,462.519 280,457C280,452.522 265,447 265,447Z" style="fill:rgb(33,224,255);"/>
    </g>
    <g transform="matrix(0.965089,0.261921,-0.261921,0.965089,244.975,-39.319)">
        <path d="M266,340C244.998,351.926 228.974,367.323 232,396C227.459,399.541 226.513,403.26 226,407C226.604,409.097 227.507,409.863 229,408C230.345,406.427 231.38,404.82 232,403C232.005,405.352 232.403,406.883 233,408C235.386,413.903 236.723,410.714 238,407C238.511,404.933 238.361,402.953 238,401C238.792,404.291 240.158,406.212 242,407C245.737,409.01 247.157,407.743 244,400C242.92,397.47 241.143,395.966 239,395C233.568,379.736 245.777,362.675 264,345" style="fill:rgb(33,224,255);"/>
    </g>
    <g transform="matrix(-0.965089,0.261921,0.261921,0.965089,586.143,-35.319)">
        <path d="M266,340C244.998,351.926 228.974,367.323 232,396C227.459,399.541 226.513,403.26 226,407C226.604,409.097 227.507,409.863 229,408C230.345,406.427 231.38,404.82 232,403C232.005,405.352 232.403,406.883 233,408C235.386,413.903 236.723,410.714 238,407C238.511,404.933 238.361,402.953 238,401C238.792,404.291 240.158,406.212 242,407C245.737,409.01 247.157,407.743 244,400C242.92,397.47 241.143,395.966 239,395C233.568,379.736 245.777,362.675 264,345" style="fill:rgb(33,224,255);"/>
    </g>
    <g transform="matrix(1,0,0,1,179,-2)">
        <circle cx="234" cy="181" r="10" style="fill:rgb(33,224,255);"/>
    </g>
    <g transform="matrix(-1,-3.33067e-16,-6.66134e-16,1.59009,651.979,-122.214)">
        <path d="M239,190L244,223L234,223L239,190Z" style="fill:rgb(33,224,255);"/>
    </g>
    <g transform="matrix(1.20588,0,0,-1.27184,76.6471,665.243)">
        <path d="M281,240C279.436,240.193 230,255.868 230,294.645C230,321.333 252.852,343 281,343C309.148,343 332,321.333 332,294.645C332,255.868 280.375,241.675 281,240Z" style="fill:rgb(33,224,255);"/>
    </g>
    <g transform="matrix(0.705882,0,0,1.02913,216.647,109.01)">
        <path d="M281,240C279.436,241.013 230,259.751 230,308.019C230,327.325 252.852,343 281,343C309.148,343 332,327.325 332,308.019C332,259.751 280.375,242.085 281,240Z" style="fill:rgb(33,224,255);"/>
    </g>
    <g transform="matrix(1,0,0,1,136,24)">
        <path d="M292,344L264,344L271,328L285,328L292,344Z" style="fill:rgb(33,224,255);"/>
    </g>
    <g transform="matrix(1.26087,0,0,1.26087,65.8696,-62.7)">
        <path d="M265,318L288,318C281.174,329.876 273.801,334.017 265,318Z" style="fill:none;stroke-width:2.15px;stroke-linecap:round;stroke:black;"/>
    </g>
    <g transform="matrix(1.03966,-0.353006,0.373905,1.10121,21.2583,79.1027)">
        <ellipse cx="243.5" cy="287" rx="14.5" ry="25" style="fill:black;stroke-width:2.39px;stroke-linecap:round;stroke:black;"/>
    </g>
    <g transform="matrix(0.327222,-0.111105,0.117682,0.346595,276.867,234.91)">
        <ellipse cx="243.5" cy="287" rx="14.5" ry="25" style="fill:white;stroke-width:7.61px;stroke-linecap:round;stroke:black;"/>
    </g>
    <g transform="matrix(-1.03966,-0.353006,-0.373905,1.10121,808.194,78.1027)">
        <ellipse cx="243.5" cy="287" rx="14.5" ry="25" style="fill:black;stroke-width:2.39px;stroke-linecap:round;stroke:black;"/>
    </g>
    <g transform="matrix(-0.327222,-0.111105,-0.117682,0.346595,550.774,234.91)">
        <ellipse cx="243.5" cy="287" rx="14.5" ry="25" style="fill:white;stroke-width:7.61px;stroke-linecap:round;stroke:black;"/>
    </g>
    <g transform="matrix(1,0,0,1,137,23)">
        <path d="M260,259C255.26,250.866 248.436,245.801 236,249" style="fill:none;stroke-width:2.71px;stroke-linecap:round;stroke:black;"/>
    </g>
    <g transform="matrix(-1,0,0,1,692,25)">
        <path d="M260,259C255.26,250.866 248.436,245.801 236,249" style="fill:none;stroke-width:2.71px;stroke-linecap:round;stroke:black;"/>
    </g>
    <g transform="matrix(0.931034,0,0,1,154.828,23)">
        <path d="M244,453C253.496,459.557 263.198,458.979 273,455" style="fill:none;stroke-width:2.8px;stroke-linecap:round;stroke:white;"/>
    </g>
    <g transform="matrix(0.896552,0,0,0.798762,202.241,115.161)">
        <path d="M244,453C253.496,459.557 263.198,458.979 273,455" style="fill:none;stroke-width:3.19px;stroke-linecap:round;stroke:white;"/>
    </g>
    <g transform="matrix(1,0,0,1,137,23)">
        <path d="M283,370L289,341" style="fill:black;stroke-width:0.63px;stroke-linecap:round;stroke:black;"/>
    </g>
    <g transform="matrix(-1.33333,0,0,1.17241,786.333,-37.7931)">
        <path d="M283,370L289,341" style="fill:black;stroke-width:0.5px;stroke-linecap:round;stroke:black;"/>
    </g>
    <g transform="matrix(1,0,0,1,137,20)">
        <circle cx="277" cy="383" r="12" style="fill:white;"/>
        <clipPath id="_clip1">
            <circle cx="277" cy="383" r="12"/>
        </clipPath>
        <g clip-path="url(#_clip1)">
            <g transform="matrix(0.182441,-0.00937989,0.00937989,0.182441,221.065,351.864)">
                <g transform="matrix(0.431714,0,0,0.431714,157.852,81.4225)">
                    <path d="M361.1,204.7L378.3,238.6L365.2,294.1L334.1,268.7L339.6,228L361.1,204.7Z" style="fill:white;fill-rule:nonzero;"/>
                </g>
                <g transform="matrix(0.431714,0,0,0.431714,157.852,81.4225)">
                    <path d="M315.2,193.3C311.6,193.3 308.7,190.4 308.7,186.8L308.7,135.7C308.7,132.1 311.6,129.2 315.2,129.2C318.8,129.2 321.7,132.1 321.7,135.7L321.7,186.8C321.6,190.4 318.7,193.3 315.2,193.3" style="fill:rgb(21,0,62);fill-rule:nonzero;"/>
                </g>
                <g transform="matrix(0.431714,0,0,0.431714,157.852,81.4225)">
                    <path d="M325.6,193.3L305.5,193.3C301.9,193.2 299.1,190.3 299.1,186.7C299.2,183.2 302,180.4 305.5,180.3L325.6,180.3C329.2,180.4 332,183.3 332,186.9C331.9,190.5 329,193.3 325.6,193.3" style="fill:rgb(21,0,62);fill-rule:nonzero;"/>
                </g>
                <g transform="matrix(0.431714,0,0,0.431714,157.852,81.4225)">
                    <path d="M361.1,204.7L382.4,184.6C366.1,168.3 343.5,158.2 318.7,158.2C268.9,158.2 228.5,198.6 228.5,248.4C228.5,298.2 268.9,338.6 318.7,338.6C337.3,338.6 353.6,345.4 367.9,335.8L385.7,338.3L385.2,309.3L334.1,268.8L345.1,217.1L361.1,204.7" style="fill:white;fill-rule:nonzero;"/>
                </g>
                <g transform="matrix(0.431714,0,0,0.431714,157.852,81.4225)">
                    <path d="M318.7,347.4C264.1,347.4 219.7,303 219.7,248.4C219.7,193.8 264.1,149.4 318.7,149.4C345.1,149.4 370,159.7 388.7,178.4L395.1,184.8L367.1,211.1L355,198.2L369.3,184.7C355,173.2 337.3,167 318.6,167C273.8,167 237.3,203.5 237.3,248.3C237.3,293.1 273.8,329.6 318.6,329.6" style="fill:rgb(21,0,62);fill-rule:nonzero;"/>
                </g>
                <g transform="matrix(0.431714,0,0,0.431714,157.852,81.4225)">
                    <path d="M368.4,296.5L355.7,284.2C365.1,274.5 370.2,261.8 370.2,248.4C370.2,234.4 364.7,221.2 354.6,211.5L348,205L355.1,198.3L361.2,204.7L367,198.7C380.5,211.8 388,229.5 388,248.3C387.9,266.4 381,283.5 368.4,296.5" style="fill:rgb(15,206,124);fill-rule:nonzero;"/>
                </g>
                <g transform="matrix(0.431714,0,0,0.431714,157.852,81.4225)">
                    <path d="M298.4,248.4C298.4,237.2 307.5,228 318.8,228C330,228 339.2,237.1 339.2,248.4C339.2,259.6 330.1,268.8 318.8,268.8C307.5,268.7 298.4,259.6 298.4,248.4" style="fill:rgb(239,244,238);fill-rule:nonzero;"/>
                </g>
                <g transform="matrix(0.431714,0,0,0.431714,157.852,81.4225)">
                    <path d="M318.7,236.9C312.4,236.9 307.2,242.1 307.2,248.4C307.2,254.7 312.4,259.9 318.7,259.9C325,259.9 330.2,254.7 330.2,248.4C330.2,242 325.1,236.9 318.7,236.9M318.7,277.6C302.6,277.6 289.5,264.5 289.5,248.4C289.5,232.3 302.6,219.2 318.7,219.2C334.8,219.2 347.9,232.3 347.9,248.4C347.9,264.5 334.8,277.6 318.7,277.6M382.5,184.6L331,232.2" style="fill:rgb(21,0,62);fill-rule:nonzero;"/>
                </g>
                <g transform="matrix(0.431714,0,0,0.431714,157.852,81.4225)">
                    <path d="M376.5,178.1L388.5,191.1L337,238.7L325,225.7L376.5,178.1Z" style="fill:rgb(21,0,62);fill-rule:nonzero;"/>
                </g>
                <g transform="matrix(0.431714,0,0,0.431714,157.852,81.4225)">
                    <path d="M328.3,266.3L365.3,294.1L385.3,309.1L385.3,347.3L345.2,345.4" style="fill:white;fill-rule:nonzero;"/>
                </g>
                <g transform="matrix(0.431714,0,0,0.431714,157.852,81.4225)">
                    <path d="M394.1,347.4L317.1,347.4L317.1,329.7L376.4,329.7L376.4,313.6L323,273.4L333.6,259.3L394.1,304.8L394.1,347.4Z" style="fill:rgb(21,0,62);fill-rule:nonzero;"/>
                </g>
                <g transform="matrix(0.431714,0,0,0.431714,157.852,81.4225)">
                    <path d="M284.4,211.2C280.8,211.2 277.9,208.3 277.9,204.7L277.9,135.7C278,132.1 280.9,129.3 284.5,129.3C288,129.4 290.8,132.2 290.9,135.7L290.9,204.7C290.9,208.3 288,211.2 284.4,211.2" style="fill:rgb(21,0,62);fill-rule:nonzero;"/>
                </g>
            </g>
        </g>
    </g>
    <g transform="matrix(1.7,0,0,1,-56.2,-27)">
        <ellipse cx="241" cy="320" rx="5" ry="27" style="fill:rgb(33,224,255);"/>
    </g>
    <g transform="matrix(1.7,0,0,1,67.8,-27)">
        <ellipse cx="241" cy="320" rx="5" ry="27" style="fill:rgb(33,224,255);"/>
    </g>
    <g transform="matrix(-0.931012,0.36499,0.36499,0.931012,297.235,-46.0654)">
        <ellipse cx="262" cy="443" rx="12" ry="8" style="fill:rgb(255,247,54);"/>
    </g>
    <g transform="matrix(0.931012,0.36499,-0.36499,0.931012,95.7655,-46.0654)">
        <ellipse cx="262" cy="443" rx="12" ry="8" style="fill:rgb(255,247,54);"/>
    </g>
    <g transform="matrix(-1,0,-0,1,481,20)">
        <path d="M265,447C265,447 250,452.522 250,457C250,462.519 256.721,467 265,467C273.279,467 280,462.519 280,457C280,452.522 265,447 265,447Z" style="fill:rgb(255,247,54);"/>
    </g>
    <g transform="matrix(-1,0,-0,1,442,20)">
        <path d="M265,447C265,447 250,452.522 250,457C250,462.519 256.721,467 265,467C273.279,467 280,462.519 280,457C280,452.522 265,447 265,447Z" style="fill:rgb(255,247,54);"/>
    </g>
    <g transform="matrix(-0.965089,0.261921,0.261921,0.965089,366.025,-39.319)">
        <path d="M266,340C244.998,351.926 228.974,367.323 232,396C227.459,399.541 226.513,403.26 226,407C226.604,409.097 227.507,409.863 229,408C230.345,406.427 231.38,404.82 232,403C232.005,405.352 232.403,406.883 233,408C235.386,413.903 236.723,410.714 238,407C238.511,404.933 238.361,402.953 238,401C238.792,404.291 240.158,406.212 242,407C245.737,409.01 247.157,407.743 244,400C242.92,397.47 241.143,395.966 239,395C233.568,379.736 245.777,362.675 264,345" style="fill:rgb(255,247,54);"/>
    </g>
    <g transform="matrix(0.965089,0.261921,-0.261921,0.965089,24.8568,-35.319)">
        <path d="M266,340C244.998,351.926 228.974,367.323 232,396C227.459,399.541 226.513,403.26 226,407C226.604,409.097 227.507,409.863 229,408C230.345,406.427 231.38,404.82 232,403C232.005,405.352 232.403,406.883 233,408C235.386,413.903 236.723,410.714 238,407C238.511,404.933 238.361,402.953 238,401C238.792,404.291 240.158,406.212 242,407C245.737,409.01 247.157,407.743 244,400C242.92,397.47 241.143,395.966 239,395C233.568,379.736 245.777,362.675 264,345" style="fill:rgb(255,247,54);"/>
    </g>
    <g transform="matrix(-1,0,-0,1,476,21)">
        <circle cx="234" cy="181" r="10" style="fill:rgb(245,255,43);"/>
    </g>
    <g transform="matrix(-1,0,-0,1,385,21)">
        <circle cx="234" cy="181" r="10" style="fill:rgb(245,255,43);"/>
    </g>
    <g transform="matrix(-1,0,-0,1,432,-2)">
        <circle cx="234" cy="181" r="10" style="fill:rgb(245,255,43);"/>
    </g>
    <g transform="matrix(-0.928625,-0.37102,-0.589955,1.4766,577.809,6.16857)">
        <path d="M239,190L244,223L234,223L239,190Z" style="fill:rgb(245,255,43);"/>
    </g>
    <g transform="matrix(0.928625,-0.37102,0.589955,1.4766,-184.368,6.16857)">
        <path d="M239,190L244,223L234,223L239,190Z" style="fill:rgb(245,255,43);"/>
    </g>
    <g transform="matrix(1,-3.33067e-16,6.66134e-16,1.59009,-40.9786,-122.214)">
        <path d="M239,190L244,223L234,223L239,190Z" style="fill:rgb(245,255,43);"/>
    </g>
    <g transform="matrix(-1.20588,0,0,-1.27184,534.353,665.243)">
        <path d="M281,240C279.436,240.193 230,255.868 230,294.645C230,321.333 252.852,343 281,343C309.148,343 332,321.333 332,294.645C332,255.868 280.375,241.675 281,240Z" style="fill:rgb(245,255,43);"/>
    </g>
    <g transform="matrix(-0.705882,0,-0,1.02913,394.353,109.01)">
        <path d="M281,240C279.436,241.013 230,259.751 230,308.019C230,327.325 252.852,343 281,343C309.148,343 332,327.325 332,308.019C332,259.751 280.375,242.085 281,240Z" style="fill:rgb(245,255,43);"/>
    </g>
    <g transform="matrix(-1,0,-0,1,475,24)">
        <path d="M292,344L264,344L271,328L285,328L292,344Z" style="fill:rgb(245,255,43);"/>
    </g>
    <g transform="matrix(-1,0,-0,1,474,23)">
        <path d="M265,318L288,318C281.174,329.876 273.801,334.017 265,318Z" style="fill:none;stroke-width:2.71px;stroke-linecap:round;stroke:black;"/>
    </g>
    <g transform="matrix(-1.03966,-0.353006,-0.373905,1.10121,589.742,79.1027)">
        <ellipse cx="243.5" cy="287" rx="14.5" ry="25" style="fill:black;stroke-width:2.39px;stroke-linecap:round;stroke:black;"/>
    </g>
    <g transform="matrix(-0.327222,-0.111105,-0.117682,0.346595,334.133,234.91)">
        <ellipse cx="243.5" cy="287" rx="14.5" ry="25" style="fill:white;stroke-width:7.61px;stroke-linecap:round;stroke:black;"/>
    </g>
    <g transform="matrix(1.03966,-0.353006,0.373905,1.10121,-197.194,78.1027)">
        <ellipse cx="243.5" cy="287" rx="14.5" ry="25" style="fill:black;stroke-width:2.39px;stroke-linecap:round;stroke:black;"/>
    </g>
    <g transform="matrix(0.327222,-0.111105,0.117682,0.346595,60.2259,234.91)">
        <ellipse cx="243.5" cy="287" rx="14.5" ry="25" style="fill:white;stroke-width:7.61px;stroke-linecap:round;stroke:black;"/>
    </g>
    <g transform="matrix(-1,0,-0,1,474,23)">
        <path d="M260,259C255.26,250.866 248.436,245.801 236,249" style="fill:none;stroke-width:2.71px;stroke-linecap:round;stroke:black;"/>
    </g>
    <g transform="matrix(1,0,-0,1,-81,25)">
        <path d="M260,259C255.26,250.866 248.436,245.801 236,249" style="fill:none;stroke-width:2.71px;stroke-linecap:round;stroke:black;"/>
    </g>
    <g transform="matrix(-0.931034,0,-0,1,456.172,23)">
        <path d="M244,453C253.496,459.557 263.198,458.979 273,455" style="fill:none;stroke-width:2.8px;stroke-linecap:round;stroke:black;"/>
    </g>
    <g transform="matrix(-0.896552,0,-0,0.798762,408.759,115.161)">
        <path d="M244,453C253.496,459.557 263.198,458.979 273,455" style="fill:none;stroke-width:3.19px;stroke-linecap:round;stroke:black;"/>
    </g>
    <g transform="matrix(-1,0,-0,1,474,23)">
        <path d="M283,370L289,341" style="fill:black;stroke-width:0.63px;stroke-linecap:round;stroke:black;"/>
    </g>
    <g transform="matrix(1.33333,0,-0,1.17241,-175.333,-37.7931)">
        <path d="M283,370L289,341" style="fill:black;stroke-width:0.5px;stroke-linecap:round;stroke:black;"/>
    </g>
    <g transform="matrix(-1,0,-0,1,474,20)">
        <circle cx="277" cy="383" r="12" style="fill:white;"/>
        <clipPath id="_clip2">
            <circle cx="277" cy="383" r="12"/>
        </clipPath>
        <g clip-path="url(#_clip2)">
            <g transform="matrix(0.182441,-0.00937989,0.00937989,0.182441,221.065,351.864)">
                <g transform="matrix(0.431714,0,0,0.431714,157.852,81.4225)">
                    <path d="M361.1,204.7L378.3,238.6L365.2,294.1L334.1,268.7L339.6,228L361.1,204.7Z" style="fill:white;fill-rule:nonzero;"/>
                </g>
                <g transform="matrix(0.431714,0,0,0.431714,157.852,81.4225)">
                    <path d="M315.2,193.3C311.6,193.3 308.7,190.4 308.7,186.8L308.7,135.7C308.7,132.1 311.6,129.2 315.2,129.2C318.8,129.2 321.7,132.1 321.7,135.7L321.7,186.8C321.6,190.4 318.7,193.3 315.2,193.3" style="fill:rgb(21,0,62);fill-rule:nonzero;"/>
                </g>
                <g transform="matrix(0.431714,0,0,0.431714,157.852,81.4225)">
                    <path d="M325.6,193.3L305.5,193.3C301.9,193.2 299.1,190.3 299.1,186.7C299.2,183.2 302,180.4 305.5,180.3L325.6,180.3C329.2,180.4 332,183.3 332,186.9C331.9,190.5 329,193.3 325.6,193.3" style="fill:rgb(21,0,62);fill-rule:nonzero;"/>
                </g>
                <g transform="matrix(0.431714,0,0,0.431714,157.852,81.4225)">
                    <path d="M361.1,204.7L382.4,184.6C366.1,168.3 343.5,158.2 318.7,158.2C268.9,158.2 228.5,198.6 228.5,248.4C228.5,298.2 268.9,338.6 318.7,338.6C337.3,338.6 353.6,345.4 367.9,335.8L385.7,338.3L385.2,309.3L334.1,268.8L345.1,217.1L361.1,204.7" style="fill:white;fill-rule:nonzero;"/>
                </g>
                <g transform="matrix(0.431714,0,0,0.431714,157.852,81.4225)">
                    <path d="M318.7,347.4C264.1,347.4 219.7,303 219.7,248.4C219.7,193.8 264.1,149.4 318.7,149.4C345.1,149.4 370,159.7 388.7,178.4L395.1,184.8L367.1,211.1L355,198.2L369.3,184.7C355,173.2 337.3,167 318.6,167C273.8,167 237.3,203.5 237.3,248.3C237.3,293.1 273.8,329.6 318.6,329.6" style="fill:rgb(21,0,62);fill-rule:nonzero;"/>
                </g>
                <g transform="matrix(0.431714,0,0,0.431714,157.852,81.4225)">
                    <path d="M368.4,296.5L355.7,284.2C365.1,274.5 370.2,261.8 370.2,248.4C370.2,234.4 364.7,221.2 354.6,211.5L348,205L355.1,198.3L361.2,204.7L367,198.7C380.5,211.8 388,229.5 388,248.3C387.9,266.4 381,283.5 368.4,296.5" style="fill:rgb(15,206,124);fill-rule:nonzero;"/>
                </g>
                <g transform="matrix(0.431714,0,0,0.431714,157.852,81.4225)">
                    <path d="M298.4,248.4C298.4,237.2 307.5,228 318.8,228C330,228 339.2,237.1 339.2,248.4C339.2,259.6 330.1,268.8 318.8,268.8C307.5,268.7 298.4,259.6 298.4,248.4" style="fill:rgb(239,244,238);fill-rule:nonzero;"/>
                </g>
                <g transform="matrix(0.431714,0,0,0.431714,157.852,81.4225)">
                    <path d="M318.7,236.9C312.4,236.9 307.2,242.1 307.2,248.4C307.2,254.7 312.4,259.9 318.7,259.9C325,259.9 330.2,254.7 330.2,248.4C330.2,242 325.1,236.9 318.7,236.9M318.7,277.6C302.6,277.6 289.5,264.5 289.5,248.4C289.5,232.3 302.6,219.2 318.7,219.2C334.8,219.2 347.9,232.3 347.9,248.4C347.9,264.5 334.8,277.6 318.7,277.6M382.5,184.6L331,232.2" style="fill:rgb(21,0,62);fill-rule:nonzero;"/>
                </g>
                <g transform="matrix(0.431714,0,0,0.431714,157.852,81.4225)">
                    <path d="M376.5,178.1L388.5,191.1L337,238.7L325,225.7L376.5,178.1Z" style="fill:rgb(21,0,62);fill-rule:nonzero;"/>
                </g>
                <g transform="matrix(0.431714,0,0,0.431714,157.852,81.4225)">
                    <path d="M328.3,266.3L365.3,294.1L385.3,309.1L385.3,347.3L345.2,345.4" style="fill:white;fill-rule:nonzero;"/>
                </g>
                <g transform="matrix(0.431714,0,0,0.431714,157.852,81.4225)">
                    <path d="M394.1,347.4L317.1,347.4L317.1,329.7L376.4,329.7L376.4,313.6L323,273.4L333.6,259.3L394.1,304.8L394.1,347.4Z" style="fill:rgb(21,0,62);fill-rule:nonzero;"/>
                </g>
                <g transform="matrix(0.431714,0,0,0.431714,157.852,81.4225)">
                    <path d="M284.4,211.2C280.8,211.2 277.9,208.3 277.9,204.7L277.9,135.7C278,132.1 280.9,129.3 284.5,129.3C288,129.4 290.8,132.2 290.9,135.7L290.9,204.7C290.9,208.3 288,211.2 284.4,211.2" style="fill:rgb(21,0,62);fill-rule:nonzero;"/>
                </g>
            </g>
        </g>
    </g>
    <g transform="matrix(-1.7,0,-0,1,667.2,-27)">
        <ellipse cx="241" cy="320" rx="5" ry="27" style="fill:rgb(245,255,43);"/>
    </g>
    <g transform="matrix(-1.7,0,-0,1,543.2,-27)">
        <ellipse cx="241" cy="320" rx="5" ry="27" style="fill:rgb(245,255,43);"/>
    </g>
    <path d="M215.5,393.6C216.868,391 219.605,391 220.974,392.3C222.342,393.6 222.342,396.2 220.974,398.8C220.016,400.75 217.553,402.7 215.5,404C213.447,402.7 210.984,400.75 210.026,398.8C208.658,396.2 208.658,393.6 210.026,392.3C211.395,391 214.132,391 215.5,393.6Z" style="fill:rgb(33,224,255);"/>
    <g transform="matrix(1,0,0,1,180,0)">
        <path d="M215.5,393.6C216.868,391 219.605,391 220.974,392.3C222.342,393.6 222.342,396.2 220.974,398.8C220.016,400.75 217.553,402.7 215.5,404C213.447,402.7 210.984,400.75 210.026,398.8C208.658,396.2 208.658,393.6 210.026,392.3C211.395,391 214.132,391 215.5,393.6Z" style="fill:rgb(245,255,43);"/>
    </g>
</svg>
