<?xml version="1.0" encoding="UTF-8" standalone="no"?>
<!DOCTYPE svg PUBLIC "-//W3C//DTD SVG 1.1//EN" "http://www.w3.org/Graphics/SVG/1.1/DTD/svg11.dtd">
<svg width="100%" height="100%" viewBox="0 0 594 686" version="1.1" xmlns="http://www.w3.org/2000/svg" xmlns:xlink="http://www.w3.org/1999/xlink" xml:space="preserve" style="fill-rule:evenodd;clip-rule:evenodd;stroke-linejoin:round;stroke-miterlimit:1.41421;">
    <g transform="matrix(0.417611,0,0,0.417611,-190.715,-143.871)">
        <path d="M1167,363L1858.09,762L1858.09,1560L1167,1959L475.912,1560L475.912,762L1167,363Z" style="fill:url(#_Linear1);stroke-width:20.1px;stroke:white;"/>
    </g>
    <g transform="matrix(1,0,0,1,-1,-1)">
        <g transform="matrix(0.195213,-0.108892,0.108892,0.195213,328.123,494.801)">
            <path d="M-22.8,509.9L20.9,509.9L20.9,513.4C20.9,521.4 20,528.4 18.1,534.5C16.3,540.2 13.2,545.5 8.8,550.4C-1,561.5 -13.5,567 -28.7,567C-43.5,567 -56.2,561.7 -66.7,551C-77.3,540.3 -82.5,527.4 -82.5,512.3C-82.5,496.9 -77.1,483.9 -66.4,473.2C-55.7,462.5 -42.6,457.1 -27.2,457.1C-18.9,457.1 -11.2,458.8 -4,462.2C2.9,465.6 9.6,471 16.2,478.6L4.8,489.5C-3.9,477.9 -14.5,472.2 -26.9,472.2C-38.1,472.2 -47.5,476.1 -55.1,483.8C-62.7,491.4 -66.5,500.9 -66.5,512.3C-66.5,524.1 -62.3,533.8 -53.8,541.4C-45.9,548.5 -37.3,552 -28.1,552C-20.2,552 -13.2,549.4 -6.9,544.1C-0.6,538.8 2.9,532.4 3.6,525L-22.8,525L-22.8,509.9Z" style="fill:rgb(250,206,50);fill-rule:nonzero;"/>
        </g>
        <g transform="matrix(0.195213,-0.108892,0.108892,0.195213,324.65,498.344)">
            <rect x="77.5" y="459.2" width="16" height="105.9" style="fill:rgb(250,206,50);"/>
        </g>
        <g transform="matrix(0.195213,-0.108892,0.108892,0.195213,324.65,498.344)">
            <path d="M184.7,474.2L184.7,565L168.7,565L168.7,474.2L144.4,474.2L144.4,459.2L209,459.2L209,474.2L184.7,474.2ZM334.2,464.9L334.2,483.8C325,476.1 315.4,472.2 305.5,472.2C294.6,472.2 285.5,476.1 278,483.9C270.5,491.7 266.8,501.2 266.8,512.4C266.8,523.5 270.5,532.9 278,540.5C285.5,548.1 294.7,551.9 305.6,551.9C311.2,551.9 316,551 319.9,549.2C322.1,548.3 324.4,547.1 326.7,545.5C329.1,543.9 331.5,542.1 334.1,539.9L334.1,559.2C325,564.4 315.4,567 305.3,567C290.2,567 277.3,561.7 266.6,551.2C256,540.6 250.6,527.7 250.6,512.7C250.6,499.2 255.1,487.2 264,476.6C275,463.7 289.2,457.2 306.6,457.2C316.1,457.2 325.3,459.7 334.2,464.9" style="fill:rgb(250,206,50);fill-rule:nonzero;"/>
        </g>
        <g transform="matrix(0.195213,-0.108892,0.108892,0.195213,324.65,498.344)">
            <path d="M410.5,495C410.5,506.7 414.4,516.3 422.3,523.8C430.1,531.3 439.1,535.1 449.4,535.1C460.5,535.1 469.9,531.3 477.5,523.6C485.1,515.8 489,506.4 489,495.2C489,483.9 485.2,474.5 477.7,466.8C470.2,459.1 460.9,455.3 449.9,455.3C438.9,455.3 429.6,459.1 422,466.8C414.3,474.5 410.5,483.8 410.5,495M394.4,494.8C394.4,479.9 399.9,467.1 410.8,456.4C421.7,445.7 434.7,440.4 450,440.4C465.1,440.4 478,445.8 488.8,456.6C499.6,467.4 505,480.3 505,495.5C505,510.7 499.6,523.6 488.7,534.2C477.8,544.9 464.6,550.2 449.1,550.2C435.4,550.2 423.2,545.5 412.3,536C400.4,525.5 394.4,511.8 394.4,494.8" style="fill:white;fill-rule:nonzero;"/>
        </g>
        <g transform="matrix(0.195213,-0.108892,0.108892,0.195213,324.65,498.344)">
            <rect x="552.1" y="459.2" width="16" height="105.9" style="fill:rgb(250,206,50);"/>
        </g>
        <g transform="matrix(0.195213,-0.108892,0.108892,0.195213,323.624,497.73)">
            <path d="M630,565.1L630,452L707.2,532.8L707.2,459.2L723.2,459.2L723.2,571.5L646,491L646,565.1L630,565.1Z" style="fill:rgb(250,206,50);fill-rule:nonzero;"/>
        </g>
    </g>
    <g transform="matrix(0.344593,0,0,0.344593,-104.481,-55.0081)">
        <path d="M1167,363L1858.09,762L1858.09,1560L1167,1959L475.912,1560L475.912,762L1167,363Z" style="fill:white;"/>
    </g>
    <g transform="matrix(0.329648,0,0,0.329648,-88.0619,-37.6792)">
        <path d="M1167,363L1858.09,762L1858.09,1560L1167,1959L475.912,1560L475.912,762L1167,363Z" style="fill:url(#_Linear2);"/>
    </g>
    <g transform="matrix(0.703641,0.0942374,-0.0917133,0.684795,87.8067,56.1944)">
        <path d="M258,369C231.729,365.1 206.863,357.026 184,343L203,340C182.909,333.105 170.927,322.964 161,312L181,313C167.033,307.59 155.715,296.511 146,282L170,285C155.578,276.323 144.796,262.159 136,245L167,254C148.001,240.366 138.485,222.81 132,204C164.092,213.267 188.941,230.106 208,253C221.79,291.121 239.476,327.424 263,361" style="fill:black;stroke-width:2.97px;stroke-linecap:round;stroke:white;"/>
    </g>
    <g transform="matrix(0.636113,0.315201,-0.306759,0.619075,191.754,19.3826)">
        <path d="M258,369C231.729,365.1 206.863,357.026 184,343L203,340C182.909,333.105 170.927,322.964 161,312L181,313C167.033,307.59 155.715,296.511 146,282L170,285C155.578,276.323 144.796,262.159 136,245L167,254C148.001,240.366 138.485,222.81 132,204C164.092,213.267 188.941,230.106 208,253C221.79,291.121 239.476,327.424 263,361" style="fill:black;stroke-width:2.97px;stroke-linecap:round;stroke:white;"/>
    </g>
    <g transform="matrix(1,0,0,1,-73,-23)">
        <path d="M345,341L345,337C340.752,335.054 338.452,331.905 339,327C332.534,322.63 332.19,317.397 333,312L331,312C328.904,305.003 330.606,301.649 332,298L329,300C331.089,286.205 338.565,275.244 355,269C355.731,267.981 353.361,267.418 350,267C352.676,265.45 355.074,265.43 357,268C357.236,262.987 359.787,259.828 364,258C361.429,261.587 359.509,264.931 361,267C361.419,265.544 363.317,264.203 367,263C364.573,264.788 362.98,266.505 364,268C377.681,265.739 388.301,270.174 396,281L407,279C409.135,284.496 408.555,289.162 402,292C403.389,292.696 404.485,293.873 405,296C403.339,295.309 402.251,295.216 402,296C403.927,296.76 405.057,298.738 406,301C404.429,300.075 402.996,299.691 402,301C403.13,311.153 401.905,319.248 398,325C402.694,329.925 403.798,334.903 397,340L390,349L369,350L368,353" style="fill:black;stroke-width:2.08px;stroke-linecap:round;stroke:white;"/>
    </g>
    <g transform="matrix(-1.04307,-0.47691,1.19256,-2.60829,234.159,1410.17)">
        <path d="M355,342L368,354L342,354L355,342Z" style="fill:black;"/>
    </g>
    <g transform="matrix(1,0,0,1,-73,-23)">
        <path d="M346,352L351,352L369,353C376.687,354.78 383.779,356.804 388,360C394.215,360.265 398.07,363.542 401,368C411.845,370.903 421.494,372.057 431,373L440,370L447,365L457,367C459.007,369.079 458.674,371.079 456,373C458.479,374.916 458.766,376.906 456,379C457.815,381.227 457.148,382.56 454,383C454.908,386.617 454.031,388.098 451,387L435,386C422.4,388.797 409.757,390.424 397,389L361,382C358.813,388.357 355.367,392.125 351,394C346.55,405.712 342.143,417.49 333,422C333.758,427.995 332.335,433.203 327,437C325.643,448.477 322.83,459.451 313,468C300.491,477.916 291.244,487.918 285,498C288.72,505.85 286.998,513.473 283,521C275.681,520.572 270.381,510.482 266,496L288,462L243,439C236.9,446.658 230.032,450.058 222,447C221.065,430.774 231.861,423.753 243,417L272,430C267.778,410.957 271.655,394.133 289,381C300.019,380.267 303.551,367.202 307,354L345,341" style="fill:black;stroke-width:2.08px;stroke-linecap:round;stroke:white;"/>
    </g>
    <g transform="matrix(1,0,0,1,-73,-23)">
        <path d="M365,382L398,449C401.444,437.985 412.2,435.857 424,435C447.955,426.843 450.676,409.281 445,388L447,364C463.348,332.18 458.007,317.368 447,307C431.198,297.773 421.532,288.459 422,279L406,296" style="fill:none;stroke-width:2.08px;stroke-linecap:round;stroke:black;"/>
    </g>
    <g transform="matrix(1,0,0,1,-73,-23)">
        <path d="M390,359L473,371" style="fill:rgb(245,4,62);stroke-width:2.08px;stroke-linecap:round;stroke:black;"/>
    </g>
    <g transform="matrix(0.0736407,-0.997285,0.997285,0.0736407,41.1857,808.234)">
        <path d="M485,326.6C486.895,323 490.684,323 492.579,324.8C494.474,326.6 494.474,330.2 492.579,333.8C491.253,336.5 487.842,339.2 485,341C482.158,339.2 478.747,336.5 477.421,333.8C475.526,330.2 475.526,326.6 477.421,324.8C479.316,323 483.105,323 485,326.6Z" style="fill:rgb(245,4,62);"/>
    </g>
    <g transform="matrix(1,0,0,1,-73,-23)">
        <path d="M435,282C437.229,277.848 435.332,275.416 431,274C427.907,274.026 425.309,274.686 424,277C425.174,286.574 440.527,294.84 452,305C470.531,332.044 460.246,338.843 455,364L452,387C454.203,403.243 453.737,411.924 452,417C441.375,435.022 419.797,440.981 401,446C396.399,452.747 401.697,456.547 408,456C411.077,454.825 411.748,452.694 411,450" style="fill:none;stroke-width:3.33px;stroke-linecap:round;stroke:black;"/>
    </g>
    <defs>
        <linearGradient id="_Linear1" x1="0" y1="0" x2="1" y2="0" gradientUnits="userSpaceOnUse" gradientTransform="matrix(699.216,1027.27,-1027.27,699.216,756.002,706.091)"><stop offset="0%" style="stop-color:rgb(246,43,255);stop-opacity:1"/><stop offset="100%" style="stop-color:rgb(253,66,0);stop-opacity:1"/></linearGradient>
        <linearGradient id="_Linear2" x1="0" y1="0" x2="1" y2="0" gradientUnits="userSpaceOnUse" gradientTransform="matrix(-45.5031,970.733,-970.733,-45.5031,1237.87,687.64)"><stop offset="0%" style="stop-color:rgb(11,255,28);stop-opacity:1"/><stop offset="100%" style="stop-color:rgb(48,255,221);stop-opacity:1"/></linearGradient>
    </defs>
</svg>
